<svg id="visual" viewBox="0 0 900 600" width="900" height="600" xmlns="http://www.w3.org/2000/svg" xmlns:xlink="http://www.w3.org/1999/xlink" version="1.1"><rect x="0" y="0" width="900" height="600" fill="#ffffff"></rect><defs><linearGradient id="grad1_0" x1="33.3%" y1="0%" x2="100%" y2="100%"><stop offset="20%" stop-color="#3a00fa" stop-opacity="1"></stop><stop offset="80%" stop-color="#3a00fa" stop-opacity="1"></stop></linearGradient></defs><defs><linearGradient id="grad1_1" x1="33.3%" y1="0%" x2="100%" y2="100%"><stop offset="20%" stop-color="#3a00fa" stop-opacity="1"></stop><stop offset="80%" stop-color="#7c47fd" stop-opacity="1"></stop></linearGradient></defs><defs><linearGradient id="grad1_2" x1="33.3%" y1="0%" x2="100%" y2="100%"><stop offset="20%" stop-color="#a676ff" stop-opacity="1"></stop><stop offset="80%" stop-color="#7c47fd" stop-opacity="1"></stop></linearGradient></defs><defs><linearGradient id="grad1_3" x1="33.3%" y1="0%" x2="100%" y2="100%"><stop offset="20%" stop-color="#a676ff" stop-opacity="1"></stop><stop offset="80%" stop-color="#c8a3ff" stop-opacity="1"></stop></linearGradient></defs><defs><linearGradient id="grad1_4" x1="33.3%" y1="0%" x2="100%" y2="100%"><stop offset="20%" stop-color="#e5d1ff" stop-opacity="1"></stop><stop offset="80%" stop-color="#c8a3ff" stop-opacity="1"></stop></linearGradient></defs><defs><linearGradient id="grad1_5" x1="33.3%" y1="0%" x2="100%" y2="100%"><stop offset="20%" stop-color="#e5d1ff" stop-opacity="1"></stop><stop offset="80%" stop-color="#ffffff" stop-opacity="1"></stop></linearGradient></defs><defs><linearGradient id="grad2_0" x1="0%" y1="0%" x2="66.7%" y2="100%"><stop offset="20%" stop-color="#3a00fa" stop-opacity="1"></stop><stop offset="80%" stop-color="#3a00fa" stop-opacity="1"></stop></linearGradient></defs><defs><linearGradient id="grad2_1" x1="0%" y1="0%" x2="66.7%" y2="100%"><stop offset="20%" stop-color="#7c47fd" stop-opacity="1"></stop><stop offset="80%" stop-color="#3a00fa" stop-opacity="1"></stop></linearGradient></defs><defs><linearGradient id="grad2_2" x1="0%" y1="0%" x2="66.7%" y2="100%"><stop offset="20%" stop-color="#7c47fd" stop-opacity="1"></stop><stop offset="80%" stop-color="#a676ff" stop-opacity="1"></stop></linearGradient></defs><defs><linearGradient id="grad2_3" x1="0%" y1="0%" x2="66.7%" y2="100%"><stop offset="20%" stop-color="#c8a3ff" stop-opacity="1"></stop><stop offset="80%" stop-color="#a676ff" stop-opacity="1"></stop></linearGradient></defs><defs><linearGradient id="grad2_4" x1="0%" y1="0%" x2="66.7%" y2="100%"><stop offset="20%" stop-color="#c8a3ff" stop-opacity="1"></stop><stop offset="80%" stop-color="#e5d1ff" stop-opacity="1"></stop></linearGradient></defs><defs><linearGradient id="grad2_5" x1="0%" y1="0%" x2="66.7%" y2="100%"><stop offset="20%" stop-color="#ffffff" stop-opacity="1"></stop><stop offset="80%" stop-color="#e5d1ff" stop-opacity="1"></stop></linearGradient></defs><g transform="translate(900, 0)"><path d="M0 351.5C-35.2 297.5 -70.4 243.4 -127.5 220.8C-184.6 198.3 -263.5 207.3 -304.4 175.8C-345.4 144.2 -348.5 72.1 -351.5 0L0 0Z" fill="#f2e8ff"></path><path d="M0 293C-29.3 247.9 -58.7 202.8 -106.2 184C-153.8 165.3 -219.6 172.8 -253.7 146.5C-287.9 120.2 -290.4 60.1 -293 0L0 0Z" fill="#d7baff"></path><path d="M0 234.4C-23.5 198.3 -47 162.2 -85 147.2C-123 132.2 -175.6 138.2 -203 117.2C-230.3 96.1 -232.3 48.1 -234.4 0L0 0Z" fill="#b88dff"></path><path d="M0 175.8C-17.6 148.7 -35.2 121.7 -63.7 110.4C-92.3 99.2 -131.7 103.7 -152.2 87.9C-172.7 72.1 -174.2 36.1 -175.8 0L0 0Z" fill="#925ffe"></path><path d="M0 117.2C-11.7 99.2 -23.5 81.1 -42.5 73.6C-61.5 66.1 -87.8 69.1 -101.5 58.6C-115.1 48.1 -116.2 24 -117.2 0L0 0Z" fill="#612cfb"></path><path d="M0 58.6C-5.9 49.6 -11.7 40.6 -21.2 36.8C-30.8 33.1 -43.9 34.6 -50.7 29.3C-57.6 24 -58.1 12 -58.6 0L0 0Z" fill="#3a00fa"></path></g><g transform="translate(0, 600)"><path d="M0 -351.5C24.3 -278.5 48.6 -205.5 107 -185.3C165.4 -165.2 258 -197.8 304.4 -175.8C350.9 -153.7 351.2 -76.8 351.5 0L0 0Z" fill="#f2e8ff"></path><path d="M0 -293C20.2 -232.1 40.5 -171.2 89.2 -154.4C137.9 -137.6 215 -164.9 253.7 -146.5C292.4 -128.1 292.7 -64 293 0L0 0Z" fill="#d7baff"></path><path d="M0 -234.4C16.2 -185.7 32.4 -137 71.3 -123.6C110.3 -110.1 172 -131.9 203 -117.2C233.9 -102.5 234.1 -51.2 234.4 0L0 0Z" fill="#b88dff"></path><path d="M0 -175.8C12.1 -139.3 24.3 -102.7 53.5 -92.7C82.7 -82.6 129 -98.9 152.2 -87.9C175.4 -76.8 175.6 -38.4 175.8 0L0 0Z" fill="#925ffe"></path><path d="M0 -117.2C8.1 -92.8 16.2 -68.5 35.7 -61.8C55.1 -55.1 86 -65.9 101.5 -58.6C117 -51.2 117.1 -25.6 117.2 0L0 0Z" fill="#612cfb"></path><path d="M0 -58.6C4 -46.4 8.1 -34.2 17.8 -30.9C27.6 -27.5 43 -33 50.7 -29.3C58.5 -25.6 58.5 -12.8 58.6 0L0 0Z" fill="#3a00fa"></path></g></svg>