<svg id="visual" viewBox="0 0 900 600" width="900" height="600" xmlns="http://www.w3.org/2000/svg" xmlns:xlink="http://www.w3.org/1999/xlink" version="1.1"><rect x="0" y="0" width="900" height="600" fill="#fff"></rect><defs><linearGradient id="grad1_0" x1="33.3%" y1="100%" x2="100%" y2="0%"><stop offset="20%" stop-color="#e6dfff" stop-opacity="1"></stop><stop offset="80%" stop-color="#e6dfff" stop-opacity="1"></stop></linearGradient></defs><defs><linearGradient id="grad1_1" x1="33.3%" y1="100%" x2="100%" y2="0%"><stop offset="20%" stop-color="#e6dfff" stop-opacity="1"></stop><stop offset="80%" stop-color="#ece7ff" stop-opacity="1"></stop></linearGradient></defs><defs><linearGradient id="grad1_2" x1="33.3%" y1="100%" x2="100%" y2="0%"><stop offset="20%" stop-color="#f3efff" stop-opacity="1"></stop><stop offset="80%" stop-color="#ece7ff" stop-opacity="1"></stop></linearGradient></defs><defs><linearGradient id="grad1_3" x1="33.3%" y1="100%" x2="100%" y2="0%"><stop offset="20%" stop-color="#f3efff" stop-opacity="1"></stop><stop offset="80%" stop-color="#f9f7ff" stop-opacity="1"></stop></linearGradient></defs><defs><linearGradient id="grad1_4" x1="33.3%" y1="100%" x2="100%" y2="0%"><stop offset="20%" stop-color="#ffffff" stop-opacity="1"></stop><stop offset="80%" stop-color="#f9f7ff" stop-opacity="1"></stop></linearGradient></defs><defs><linearGradient id="grad2_0" x1="0%" y1="100%" x2="66.7%" y2="0%"><stop offset="20%" stop-color="#e6dfff" stop-opacity="1"></stop><stop offset="80%" stop-color="#e6dfff" stop-opacity="1"></stop></linearGradient></defs><defs><linearGradient id="grad2_1" x1="0%" y1="100%" x2="66.7%" y2="0%"><stop offset="20%" stop-color="#ece7ff" stop-opacity="1"></stop><stop offset="80%" stop-color="#e6dfff" stop-opacity="1"></stop></linearGradient></defs><defs><linearGradient id="grad2_2" x1="0%" y1="100%" x2="66.7%" y2="0%"><stop offset="20%" stop-color="#ece7ff" stop-opacity="1"></stop><stop offset="80%" stop-color="#f3efff" stop-opacity="1"></stop></linearGradient></defs><defs><linearGradient id="grad2_3" x1="0%" y1="100%" x2="66.7%" y2="0%"><stop offset="20%" stop-color="#f9f7ff" stop-opacity="1"></stop><stop offset="80%" stop-color="#f3efff" stop-opacity="1"></stop></linearGradient></defs><defs><linearGradient id="grad2_4" x1="0%" y1="100%" x2="66.7%" y2="0%"><stop offset="20%" stop-color="#f9f7ff" stop-opacity="1"></stop><stop offset="80%" stop-color="#ffffff" stop-opacity="1"></stop></linearGradient></defs><g transform="translate(900, 600)"><path d="M-486.7 0C-486.1 -43.6 -485.4 -87.2 -470.2 -126C-454.9 -164.7 -425.2 -198.7 -394 -227.5C-362.9 -256.3 -330.4 -280 -297 -297C-263.6 -313.9 -229.3 -324.2 -200.5 -347.3C-171.7 -370.4 -148.2 -406.4 -115.7 -431.8C-83.2 -457.2 -41.6 -472 0 -486.7L0 0Z" fill="#fcfbff"></path><path d="M-389.4 0C-388.9 -34.9 -388.3 -69.8 -376.1 -100.8C-364 -131.8 -340.1 -158.9 -315.2 -182C-290.3 -205.1 -264.3 -224 -237.6 -237.6C-210.9 -251.2 -183.5 -259.3 -160.4 -277.8C-137.3 -296.3 -118.6 -325.1 -92.6 -345.4C-66.5 -365.7 -33.3 -377.6 0 -389.4L0 0Z" fill="#f6f3ff"></path><path d="M-292 0C-291.6 -26.2 -291.2 -52.3 -282.1 -75.6C-273 -98.8 -255.1 -119.2 -236.4 -136.5C-217.7 -153.8 -198.2 -168 -178.2 -178.2C-158.2 -188.4 -137.6 -194.5 -120.3 -208.4C-103 -222.2 -88.9 -243.8 -69.4 -259.1C-49.9 -274.3 -25 -283.2 0 -292L0 0Z" fill="#f0ebff"></path><path d="M-194.7 0C-194.4 -17.4 -194.2 -34.9 -188.1 -50.4C-182 -65.9 -170.1 -79.5 -157.6 -91C-145.2 -102.5 -132.1 -112 -118.8 -118.8C-105.4 -125.6 -91.7 -129.7 -80.2 -138.9C-68.7 -148.2 -59.3 -162.6 -46.3 -172.7C-33.3 -182.9 -16.6 -188.8 0 -194.7L0 0Z" fill="#e9e3ff"></path><path d="M-97.3 0C-97.2 -8.7 -97.1 -17.4 -94 -25.2C-91 -32.9 -85 -39.7 -78.8 -45.5C-72.6 -51.3 -66.1 -56 -59.4 -59.4C-52.7 -62.8 -45.9 -64.8 -40.1 -69.5C-34.3 -74.1 -29.6 -81.3 -23.1 -86.4C-16.6 -91.4 -8.3 -94.4 0 -97.3L0 0Z" fill="#e6dfff"></path></g><g transform="translate(0, 0)"><path d="M486.7 0C434.9 33.6 383.1 67.2 353.5 94.7C323.9 122.2 316.6 143.6 324.8 187.5C332.9 231.4 356.7 297.9 344.2 344.2C331.7 390.5 283 416.6 233 403.6C183 390.6 131.7 338.5 92.7 345.8C53.6 353.1 26.8 419.9 0 486.7L0 0Z" fill="#fcfbff"></path><path d="M389.4 0C347.9 26.9 306.5 53.8 282.8 75.8C259.2 97.8 253.3 114.9 259.8 150C266.4 185.1 285.3 238.3 275.3 275.3C265.4 312.4 226.4 333.3 186.4 322.9C146.4 312.5 105.4 270.8 74.1 276.6C42.9 282.5 21.4 336 0 389.4L0 0Z" fill="#f6f3ff"></path><path d="M292 0C261 20.2 229.9 40.3 212.1 56.8C194.4 73.3 189.9 86.1 194.9 112.5C199.8 138.9 214 178.7 206.5 206.5C199 234.3 169.8 249.9 139.8 242.1C109.8 234.3 79 203.1 55.6 207.5C32.2 211.9 16.1 252 0 292L0 0Z" fill="#f0ebff"></path><path d="M194.7 0C174 13.4 153.2 26.9 141.4 37.9C129.6 48.9 126.6 57.4 129.9 75C133.2 92.6 142.7 119.2 137.7 137.7C132.7 156.2 113.2 166.6 93.2 161.4C73.2 156.2 52.7 135.4 37.1 138.3C21.4 141.3 10.7 168 0 194.7L0 0Z" fill="#e9e3ff"></path><path d="M97.3 0C87 6.7 76.6 13.4 70.7 18.9C64.8 24.4 63.3 28.7 65 37.5C66.6 46.3 71.3 59.6 68.8 68.8C66.3 78.1 56.6 83.3 46.6 80.7C36.6 78.1 26.3 67.7 18.5 69.2C10.7 70.6 5.4 84 0 97.3L0 0Z" fill="#e6dfff"></path></g></svg>